<svg xmlns="http://www.w3.org/2000/svg" viewBox="0 0 1280 900" fill="none"><rect x="0" y="0" width="1280" height="900" rx="0" fill="#0e1116"/><rect x="0" y="0" width="1280" height="64" rx="0" fill="#11151b"/><path d="M0 64H1280" stroke="#1d222b" stroke-width="1"/><rect x="36" y="28" width="128" height="11" rx="5.5" fill="#dde1e8"/><rect x="300" y="30" width="52" height="9" rx="4.5" fill="#39404e"/><rect x="392" y="30" width="52" height="9" rx="4.5" fill="#39404e"/><rect x="484" y="30" width="52" height="9" rx="4.5" fill="#39404e"/><rect x="1132" y="20" width="112" height="24" rx="12" fill="rgba(75,87,209,.18)"/><rect x="1146" y="28" width="84" height="8" rx="4" fill="#8f98d6"/><rect x="0" y="64" width="1280" height="118" rx="0" fill="#101319"/><path d="M0 182H1280" stroke="#1d222b" stroke-width="1"/><rect x="36" y="152" width="12" height="16" rx="2" fill="rgba(75,87,209,.5)"/><rect x="55" y="142.4" width="12" height="25.6" rx="2" fill="rgba(75,87,209,.5)"/><rect x="74" y="156" width="12" height="12" rx="2" fill="rgba(75,87,209,.5)"/><rect x="93" y="160.9" width="12" height="7.1" rx="2" fill="rgba(75,87,209,.5)"/><rect x="112" y="139" width="12" height="29" rx="2" fill="rgba(75,87,209,.5)"/><rect x="131" y="145.7" width="12" height="22.3" rx="2" fill="rgba(75,87,209,.5)"/><rect x="150" y="146.2" width="12" height="21.8" rx="2" fill="rgba(75,87,209,.5)"/><rect x="169" y="134.2" width="12" height="33.8" rx="2" fill="rgba(75,87,209,.5)"/><rect x="188" y="131.6" width="12" height="36.4" rx="2" fill="rgba(75,87,209,.5)"/><rect x="207" y="116.1" width="12" height="51.9" rx="2" fill="rgba(75,87,209,.5)"/><rect x="226" y="150.7" width="12" height="17.3" rx="2" fill="rgba(75,87,209,.5)"/><rect x="245" y="152.2" width="12" height="15.8" rx="2" fill="rgba(75,87,209,.5)"/><rect x="264" y="128.5" width="12" height="39.5" rx="2" fill="rgba(75,87,209,.5)"/><rect x="283" y="162" width="12" height="6" rx="2" fill="rgba(75,87,209,.5)"/><rect x="302" y="143.2" width="12" height="24.8" rx="2" fill="rgba(75,87,209,.5)"/><rect x="321" y="118.5" width="12" height="49.5" rx="2" fill="rgba(75,87,209,.5)"/><rect x="340" y="147.3" width="12" height="20.7" rx="2" fill="rgba(75,87,209,.5)"/><rect x="359" y="107.1" width="12" height="60.9" rx="2" fill="rgba(75,87,209,.5)"/><rect x="378" y="137.1" width="12" height="30.9" rx="2" fill="rgba(75,87,209,.5)"/><rect x="397" y="144.5" width="12" height="23.5" rx="2" fill="rgba(75,87,209,.5)"/><rect x="416" y="130.2" width="12" height="37.8" rx="2" fill="rgba(75,87,209,.5)"/><rect x="435" y="147.4" width="12" height="20.6" rx="2" fill="rgba(75,87,209,.5)"/><rect x="454" y="152.1" width="12" height="15.9" rx="2" fill="rgba(75,87,209,.5)"/><rect x="473" y="129.3" width="12" height="38.7" rx="2" fill="rgba(75,87,209,.5)"/><rect x="492" y="156.5" width="12" height="11.5" rx="2" fill="rgba(75,87,209,.5)"/><rect x="511" y="121.2" width="12" height="46.8" rx="2" fill="rgba(75,87,209,.5)"/><rect x="530" y="113" width="12" height="55" rx="2" fill="rgba(75,87,209,.5)"/><rect x="549" y="150.8" width="12" height="17.2" rx="2" fill="rgba(75,87,209,.5)"/><rect x="568" y="151.3" width="12" height="16.7" rx="2" fill="rgba(75,87,209,.5)"/><rect x="587" y="91.4" width="12" height="76.6" rx="2" fill="rgba(75,87,209,.5)"/><rect x="606" y="127.6" width="12" height="40.4" rx="2" fill="rgba(75,87,209,.5)"/><rect x="625" y="152.2" width="12" height="15.8" rx="2" fill="rgba(75,87,209,.5)"/><rect x="644" y="158.4" width="12" height="9.6" rx="2" fill="rgba(75,87,209,.5)"/><rect x="663" y="128.5" width="12" height="39.5" rx="2" fill="rgba(75,87,209,.5)"/><rect x="682" y="119.3" width="12" height="48.7" rx="2" fill="rgba(75,87,209,.5)"/><rect x="701" y="120.8" width="12" height="47.2" rx="2" fill="rgba(75,87,209,.5)"/><rect x="720" y="155.6" width="12" height="12.4" rx="2" fill="rgba(75,87,209,.5)"/><rect x="739" y="145" width="12" height="23" rx="2" fill="rgba(75,87,209,.5)"/><rect x="758" y="123.6" width="12" height="44.4" rx="2" fill="rgba(75,87,209,.5)"/><rect x="777" y="126" width="12" height="42" rx="2" fill="rgba(75,87,209,.5)"/><rect x="796" y="154.2" width="12" height="13.8" rx="2" fill="rgba(75,87,209,.5)"/><rect x="815" y="152.2" width="12" height="15.8" rx="2" fill="rgba(75,87,209,.5)"/><rect x="834" y="160" width="12" height="8" rx="2" fill="rgba(75,87,209,.5)"/><rect x="853" y="105.8" width="12" height="62.2" rx="2" fill="rgba(75,87,209,.5)"/><rect x="872" y="134.5" width="12" height="33.5" rx="2" fill="rgba(75,87,209,.5)"/><rect x="891" y="146.2" width="12" height="21.8" rx="2" fill="rgba(75,87,209,.5)"/><rect x="910" y="104" width="12" height="64" rx="2" fill="rgba(75,87,209,.5)"/><rect x="929" y="125" width="12" height="43" rx="2" fill="rgba(75,87,209,.5)"/><rect x="948" y="135.9" width="12" height="32.1" rx="2" fill="rgba(75,87,209,.5)"/><rect x="967" y="151.4" width="12" height="16.6" rx="2" fill="rgba(75,87,209,.5)"/><rect x="986" y="145.6" width="12" height="22.4" rx="2" fill="rgba(75,87,209,.5)"/><rect x="1005" y="155" width="12" height="13" rx="2" fill="rgba(75,87,209,.5)"/><rect x="1024" y="117.2" width="12" height="50.8" rx="2" fill="rgba(75,87,209,.5)"/><rect x="1043" y="101.2" width="12" height="66.8" rx="2" fill="rgba(75,87,209,.5)"/><rect x="1062" y="129.5" width="12" height="38.5" rx="2" fill="rgba(75,87,209,.5)"/><rect x="1081" y="158.9" width="12" height="9.1" rx="2" fill="rgba(75,87,209,.5)"/><rect x="1100" y="159.7" width="12" height="8.3" rx="2" fill="#8e4a52"/><rect x="1119" y="155.4" width="12" height="12.6" rx="2" fill="#8e4a52"/><rect x="1138" y="95.2" width="12" height="72.8" rx="2" fill="#8e4a52"/><rect x="1157" y="160" width="12" height="8" rx="2" fill="#8e4a52"/><rect x="1176" y="151.7" width="12" height="16.3" rx="2" fill="#8e4a52"/><rect x="1195" y="145.6" width="12" height="22.4" rx="2" fill="#8e4a52"/><rect x="1214" y="158.5" width="12" height="9.5" rx="2" fill="#8e4a52"/><rect x="1233" y="105.6" width="12" height="62.4" rx="2" fill="#8e4a52"/><path d="M0 242H1280" stroke="#161a21" stroke-width="1"/><rect x="40" y="220" width="166.9" height="9" rx="4.5" fill="#dde1e8"/><rect x="300" y="214" width="262.2" height="16" rx="3" fill="#4b57d1"/><rect x="574.2" y="218" width="34" height="8" rx="4" fill="#39404e"/><path d="M0 280H1280" stroke="#161a21" stroke-width="1"/><rect x="58" y="258" width="97.7" height="9" rx="4.5" fill="#6f7787"/><path d="M52 246V264" stroke="#39404e"/><rect x="323.7" y="252" width="230.6" height="16" rx="3" fill="#5e9c8f"/><rect x="566.3" y="256" width="34" height="8" rx="4" fill="#39404e"/><path d="M0 318H1280" stroke="#161a21" stroke-width="1"/><rect x="58" y="296" width="156.8" height="9" rx="4.5" fill="#6f7787"/><path d="M52 284V302" stroke="#39404e"/><rect x="333.8" y="290" width="377.4" height="16" rx="3" fill="#c98b5e"/><rect x="723.2" y="294" width="34" height="8" rx="4" fill="#39404e"/><path d="M0 356H1280" stroke="#161a21" stroke-width="1"/><rect x="76" y="334" width="79.7" height="9" rx="4.5" fill="#6f7787"/><path d="M70 322V340" stroke="#39404e"/><rect x="340" y="328" width="443.3" height="16" rx="3" fill="#7c6bb8"/><rect x="795.3" y="332" width="34" height="8" rx="4" fill="#39404e"/><path d="M0 394H1280" stroke="#161a21" stroke-width="1"/><rect x="76" y="372" width="110.3" height="9" rx="4.5" fill="#6f7787"/><path d="M70 360V378" stroke="#39404e"/><rect x="358.3" y="366" width="213.6" height="16" rx="3" fill="#b06a8c"/><rect x="583.9" y="370" width="34" height="8" rx="4" fill="#39404e"/><path d="M0 432H1280" stroke="#161a21" stroke-width="1"/><rect x="76" y="410" width="113.2" height="9" rx="4.5" fill="#6f7787"/><path d="M70 398V416" stroke="#39404e"/><rect x="393.3" y="404" width="228.2" height="16" rx="3" fill="#4f7fa8"/><rect x="633.5" y="408" width="34" height="8" rx="4" fill="#39404e"/><path d="M0 470H1280" stroke="#161a21" stroke-width="1"/><rect x="94" y="448" width="128.6" height="9" rx="4.5" fill="#6f7787"/><path d="M88 436V454" stroke="#39404e"/><rect x="397.6" y="442" width="266.5" height="16" rx="3" fill="#4b57d1"/><rect x="676.1" y="446" width="34" height="8" rx="4" fill="#39404e"/><circle cx="732.1" cy="450" r="5" fill="#b4585e"/><path d="M0 508H1280" stroke="#161a21" stroke-width="1"/><rect x="58" y="486" width="94" height="9" rx="4.5" fill="#6f7787"/><path d="M52 474V492" stroke="#39404e"/><rect x="459.8" y="480" width="376.2" height="16" rx="3" fill="#5e9c8f"/><rect x="847.9" y="484" width="34" height="8" rx="4" fill="#39404e"/><path d="M0 546H1280" stroke="#161a21" stroke-width="1"/><rect x="76" y="524" width="103.6" height="9" rx="4.5" fill="#6f7787"/><path d="M70 512V530" stroke="#39404e"/><rect x="489.9" y="518" width="348.4" height="16" rx="3" fill="#c98b5e"/><rect x="850.3" y="522" width="34" height="8" rx="4" fill="#39404e"/><path d="M0 584H1280" stroke="#161a21" stroke-width="1"/><rect x="94" y="562" width="107.4" height="9" rx="4.5" fill="#6f7787"/><path d="M88 550V568" stroke="#39404e"/><rect x="506.5" y="556" width="274.8" height="16" rx="3" fill="#7c6bb8"/><rect x="793.3" y="560" width="34" height="8" rx="4" fill="#39404e"/><path d="M0 622H1280" stroke="#161a21" stroke-width="1"/><rect x="94" y="600" width="61" height="9" rx="4.5" fill="#6f7787"/><path d="M88 588V606" stroke="#39404e"/><rect x="551.6" y="594" width="282" height="16" rx="3" fill="#b06a8c"/><rect x="845.7" y="598" width="34" height="8" rx="4" fill="#39404e"/><path d="M0 660H1280" stroke="#161a21" stroke-width="1"/><rect x="58" y="638" width="132.1" height="9" rx="4.5" fill="#6f7787"/><path d="M52 626V644" stroke="#39404e"/><rect x="617.3" y="632" width="222.1" height="16" rx="3" fill="#4f7fa8"/><rect x="851.3" y="636" width="34" height="8" rx="4" fill="#39404e"/><path d="M0 698H1280" stroke="#161a21" stroke-width="1"/><rect x="76" y="676" width="95.7" height="9" rx="4.5" fill="#6f7787"/><path d="M70 664V682" stroke="#39404e"/><rect x="636.3" y="670" width="246.8" height="16" rx="3" fill="#4b57d1"/><rect x="895.1" y="674" width="34" height="8" rx="4" fill="#39404e"/><path d="M0 736H1280" stroke="#161a21" stroke-width="1"/><rect x="76" y="714" width="123.7" height="9" rx="4.5" fill="#6f7787"/><path d="M70 702V720" stroke="#39404e"/><rect x="673.7" y="708" width="97" height="16" rx="3" fill="#5e9c8f"/><rect x="782.7" y="712" width="34" height="8" rx="4" fill="#39404e"/><path d="M0 774H1280" stroke="#161a21" stroke-width="1"/><rect x="40" y="752" width="181.7" height="9" rx="4.5" fill="#dde1e8"/><rect x="300" y="746" width="147.9" height="16" rx="3" fill="#c98b5e"/><rect x="459.9" y="750" width="34" height="8" rx="4" fill="#39404e"/><path d="M0 812H1280" stroke="#161a21" stroke-width="1"/><rect x="58" y="790" width="174.4" height="9" rx="4.5" fill="#6f7787"/><path d="M52 778V796" stroke="#39404e"/><rect x="349.5" y="784" width="165.5" height="16" rx="3" fill="#7c6bb8"/><rect x="527.1" y="788" width="34" height="8" rx="4" fill="#39404e"/><path d="M0 850H1280" stroke="#161a21" stroke-width="1"/><rect x="76" y="828" width="132.6" height="9" rx="4.5" fill="#6f7787"/><path d="M70 816V834" stroke="#39404e"/><rect x="381.4" y="822" width="158.1" height="16" rx="3" fill="#b06a8c"/><rect x="551.5" y="826" width="34" height="8" rx="4" fill="#39404e"/><path d="M0 888H1280" stroke="#161a21" stroke-width="1"/><rect x="94" y="866" width="87.9" height="9" rx="4.5" fill="#6f7787"/><path d="M88 854V872" stroke="#39404e"/><rect x="422.2" y="860" width="147.4" height="16" rx="3" fill="#4f7fa8"/><rect x="581.6" y="864" width="34" height="8" rx="4" fill="#39404e"/></svg>